:SAMPLES-PER-SECOND 30
:FULLY-SPECIFIED
:DEGREES
230
root  -14.1024 40.4172 -12.3721 48.3087 -85.171 -54.5557
RightUpLeg  1.95535 -8.53644 -1.06602
RightLeg  10.4465 -8.38856 4.238
RightFoot  -4.73335 0.0495375 -1.41398
RightToes  0.00048216 0.542163 -0.142577
Spine  1.29761 -0.240152 9.09839
Spine1  23.2601 1.504 -2.55659
HEad  -12.1045 -1.65929 -10.1074
LeftShoulder1  11.7563 -16.3344 -51.7158
LeftArm  -19.7986 20.9496 -24.0498
LeftForeArm  -17.4043 -60.8928 -22.3796
LeftHand  -0.25398 0.0180481 5.50724
RightShoulder  6.64308 11.2843 38.8402
RightArm  -20.9005 -23.7308 38.5119
RightForeArm  -42.7142 65.352 29.221
RightHand  -1.36767 4.16004 -16.8456
LeftUpLeg  0.945069 5.76654 13.7808
LeftLeg  15.4261 3.21265 1.32596
LeftFoot  -8.43665 0.239873 -7.46251
LeftToes  1.06246e-005 4.65855e-005 -8.18503e-006
231
root  -13.9845 40.4193 -12.1004 49.0352 -85.3611 -55.6026
RightUpLeg  2.12488 -8.7266 -1.64193
RightLeg  10.4422 -7.94671 4.19645
RightFoot  -4.46651 0.0380323 -1.13705
RightToes  0.00048216 0.542163 -0.142577
Spine  1.38897 -0.0904493 9.65121
Spine1  23.6329 1.9737 -3.28082
HEad  -12.0533 -0.511457 -11.1627
LeftShoulder1  11.5961 -16.13 -51.5456
LeftArm  -22.6417 21.2946 -23.444
LeftForeArm  -16.8781 -64.0582 -25.9416
LeftHand  -0.25398 0.0180481 5.50724
RightShoulder  6.67242 11.2283 39.1937
RightArm  -22.1341 -22.5039 37.7041
RightForeArm  -40.0155 67.9739 33.5214
RightHand  -1.31031 4.36439 -15.8547
LeftUpLeg  0.976228 5.77605 13.2121
LeftLeg  15.865 3.46497 1.43314
LeftFoot  -8.60556 0.219782 -7.04244
LeftToes  1.06246e-005 4.65855e-005 -8.18503e-006
232
root  -13.8679 40.4518 -11.8073 47.8647 -85.6704 -54.6193
RightUpLeg  2.26279 -8.90623 -2.40243
RightLeg  10.2026 -7.48973 4.1061
RightFoot  -4.00444 0.0285685 -0.869913
RightToes  0.00048216 0.542163 -0.142577
Spine  1.23164 0.078507 9.87033
Spine1  24.0721 2.37247 -3.87076
HEad  -11.7276 0.590158 -12.2894
LeftShoulder1  11.3747 -15.8706 -51.2446
LeftArm  -25.6233 21.3397 -22.5746
LeftForeArm  -13.5883 -67.7956 -31.4496
LeftHand  -0.25398 0.0180481 5.50724
RightShoulder  6.6687 11.1382 39.4355
RightArm  -24.0595 -21.0434 37.0227
RightForeArm  -34.9567 70.8624 39.95
RightHand  -1.47402 5.61255 -15.836
LeftUpLeg  1.13372 5.87669 12.3781
LeftLeg  15.7428 3.68873 1.49818
LeftFoot  -8.48823 0.213172 -6.5181
LeftToes  1.06246e-005 4.65855e-005 -8.18503e-006
233
root  -13.7438 40.5046 -11.5008 44.2209 -86.055 -50.9794
RightUpLeg  2.27341 -9.09882 -3.33268
RightLeg  9.79802 -7.03155 3.99166
RightFoot  -3.45918 0.00218787 -0.374426
RightToes  0.00048216 0.542163 -0.142577
Spine  0.970559 0.225897 9.66523
Spine1  24.4116 2.61125 -4.20072
HEad  -11.3436 1.73004 -13.4837
LeftShoulder1  11.1549 -15.6119 -50.9394
LeftArm  -28.6325 21.1897 -21.284
LeftForeArm  -7.28057 -71.5528 -39.679
LeftHand  -0.25398 0.0180481 5.50724
RightShoulder  6.62231 11.0022 39.5377
RightArm  -26.343 -19.3985 36.3673
RightForeArm  -27.4563 73.671 49.3852
RightHand  -1.62134 6.52289 -16.1125
LeftUpLeg  1.28956 6.23152 11.3576
LeftLeg  15.1582 3.70636 1.46312
LeftFoot  -8.12799 0.216338 -5.97511
LeftToes  1.06246e-005 4.65855e-005 -8.18503e-006
234
root  -13.613 40.5639 -11.1858 38.3265 -86.4735 -44.9559
RightUpLeg  2.16286 -9.29903 -4.36451
RightLeg  9.32174 -6.58064 3.84606
RightFoot  -2.92346 -0.0478314 0.379005
RightToes  0.00048216 0.542163 -0.142577
Spine  0.75751 0.33923 9.15515
Spine1  24.5582 2.72691 -4.36058
HEad  -11.0994 2.70417 -14.6316
LeftShoulder1  10.9209 -15.3895 -50.4635
LeftArm  -31.8497 21.0016 -19.8843
LeftForeArm  2.50817 -74.7286 -51.3534
LeftHand  -0.25398 0.0180481 5.50724
RightShoulder  6.54471 10.8451 39.4989
RightArm  -28.7353 -17.7437 35.6708
RightForeArm  -16.0526 75.9211 62.3381
RightHand  -1.48555 6.03589 -15.3857
LeftUpLeg  1.43232 6.96383 10.29
LeftLeg  14.2776 3.39924 1.27326
LeftFoot  -7.61826 0.225563 -5.53207
LeftToes  1.06246e-005 4.65855e-005 -8.18503e-006
235
root  -13.4843 40.6248 -10.8587 30.1231 -86.8805 -36.5563
RightUpLeg  1.98412 -9.52321 -5.46033
RightLeg  8.83297 -6.1135 3.68483
RightFoot  -2.36178 -0.101525 1.08839
RightToes  0.00048216 0.542163 -0.142577
Spine  0.582527 0.432356 8.56374
Spine1  24.5686 2.82012 -4.54384
HEad  -10.9494 3.35469 -15.6838
LeftShoulder1  10.6652 -15.2187 -49.7365
LeftArm  -35.2691 20.8535 -18.5678
LeftForeArm  16.3045 -76.9287 -67.0374
LeftHand  -0.25398 0.0180481 5.50724
RightShoulder  6.46999 10.7198 39.3817
RightArm  -31.1281 -16.2373 34.9433
RightForeArm  -0.546762 77.2398 78.7158
RightHand  -1.22577 4.8818 -14.1633
LeftUpLeg  1.61959 7.78189 9.21091
LeftLeg  13.1922 3.00848 0.93434
LeftFoot  -7.03555 0.235177 -5.13259
LeftToes  1.06246e-005 4.65855e-005 -8.18503e-006
236
root  -13.3618 40.6877 -10.5158 19.2051 -87.2329 -25.3604
RightUpLeg  1.7277 -9.78167 -6.60262
RightLeg  8.32595 -5.59891 3.53202
RightFoot  -1.70855 -0.143829 1.56884
RightToes  0.00048216 0.542163 -0.142577
Spine  0.358957 0.520474 8.04008
Spine1  24.5089 2.96027 -4.88342
HEad  -10.7369 3.8112 -16.6498
LeftShoulder1  10.418 -15.1054 -48.8789
LeftArm  -38.7423 20.7476 -17.2139
LeftForeArm  33.1628 -77.8616 -85.7187
LeftHand  -0.25398 0.0180481 5.50724
RightShoulder  6.42152 10.6425 39.2921
RightArm  -33.4836 -14.9472 34.1776
RightForeArm  16.5904 77.3754 97.0255
RightHand  -1.20057 4.51741 -14.3361
LeftUpLeg  1.83296 8.20686 8.06739
LeftLeg  11.9283 2.97279 0.488415
LeftFoot  -6.41823 0.2357 -4.58853
LeftToes  1.06246e-005 4.65855e-005 -8.18503e-006
237
root  -13.2433 40.7482 -10.1622 5.71091 -87.4829 -11.4605
RightUpLeg  1.34468 -10.0461 -7.74063
RightLeg  7.78353 -5.07017 3.37657
RightFoot  -1.01228 -0.189082 2.01409
RightToes  0.00048216 0.542163 -0.142577
Spine  0.076052 0.600532 7.58147
Spine1  24.3697 3.13625 -5.36063
HEad  -10.454 4.2534 -17.4506
LeftShoulder1  10.1956 -15.0407 -47.9944
LeftArm  -42.2679 20.7587 -15.802
LeftForeArm  49.8696 -77.491 -103.997
LeftHand  -0.25398 0.0180481 5.50724
RightShoulder  6.39369 10.589 39.2681
RightArm  -35.8136 -13.9283 33.3599
RightForeArm  31.4983 76.326 113.745
RightHand  -1.4418 5.22712 -16.0361
LeftUpLeg  1.96373 8.07658 6.8639
LeftLeg  10.576 3.48124 -0.0499321
LeftFoot  -5.80161 0.220354 -3.83579
LeftToes  1.06246e-005 4.65855e-005 -8.18503e-006
238
root  -13.1305 40.798 -9.80365 -8.79594 -87.5762 3.55713
RightUpLeg  0.850016 -10.2971 -8.82027
RightLeg  7.23987 -4.59949 3.20252
RightFoot  -0.385066 -0.256519 2.64568
RightToes  0.00048216 0.542163 -0.142577
Spine  -0.216047 0.649797 7.15394
Spine1  24.1424 3.29282 -5.88569
HEad  -10.2426 4.72054 -17.9503
LeftShoulder1  9.99649 -15.0085 -47.1244
LeftArm  -45.8707 21.0541 -14.5092
LeftForeArm  63.9771 -76.0883 -119.261
LeftHand  -0.25398 0.0180481 5.50724
RightShoulder  6.37088 10.5473 39.2419
RightArm  -38.125 -13.2748 32.5493
RightForeArm  42.8154 74.5025 126.367
RightHand  -1.63844 5.94975 -17.0573
LeftUpLeg  1.94449 7.58265 5.68502
LeftLeg  9.29544 4.36289 -0.675876
LeftFoot  -5.23325 0.192122 -3.01122
LeftToes  1.06246e-005 4.65855e-005 -8.18503e-006
239
root  -13.0307 40.8333 -9.43764 -21.6997 -87.5027 17.0018
RightUpLeg  0.324009 -10.5466 -9.82933
RightLeg  6.74278 -4.20145 3.01909
RightFoot  0.151043 -0.340088 3.38822
RightToes  0.00048216 0.542163 -0.142577
Spine  -0.502649 0.648893 6.82251
Spine1  23.8819 3.41001 -6.44102
HEad  -10.2139 5.23023 -18.1572
LeftShoulder1  9.8314 -14.996 -46.3586
LeftArm  -49.3764 21.6978 -13.4058
LeftForeArm  74.9111 -73.9594 -131.025
LeftHand  -0.25398 0.0180481 5.50724
RightShoulder  6.347 10.5212 39.1599
RightArm  -40.3699 -13.0362 31.8636
RightForeArm  51.3554 72.2998 135.419
RightHand  -1.62768 6.03571 -16.817
LeftUpLeg  1.81101 6.93212 4.5846
LeftLeg  8.18299 5.36159 -1.34104
LeftFoot  -4.74343 0.158849 -2.26047
LeftToes  1.06246e-005 4.65855e-005 -8.18503e-006
240
root  -12.9475 40.8563 -9.06215 -31.7169 -87.3312 27.5305
RightUpLeg  -0.158311 -10.7858 -10.7702
RightLeg  6.27888 -3.8368 2.82026
RightFoot  0.662907 -0.424775 4.0805
RightToes  0.00048216 0.542163 -0.142577
Spine  -0.792606 0.607988 6.66582
Spine1  23.6619 3.51434 -7.04685
HEad  -10.3722 5.81573 -18.2508
LeftShoulder1  9.70568 -14.9881 -45.7667
LeftArm  -52.5458 22.5629 -12.4872
LeftForeArm  82.5812 -71.4949 -139.409
LeftHand  -0.25398 0.0180481 5.50724
RightShoulder  6.32274 10.4985 39.0646
RightArm  -42.5116 -13.1185 31.3638
RightForeArm  58.1719 69.9328 142.014
RightHand  -1.45857 5.53272 -15.785
LeftUpLeg  1.63502 6.2433 3.5581
LeftLeg  7.23911 6.30989 -1.98242
LeftFoot  -4.33276 0.123255 -1.58709
LeftToes  1.06246e-005 4.65855e-005 -8.18503e-006
241
root  -12.8764 40.8671 -8.68492 -39.305 -87.1322 35.5498
RightUpLeg  -0.547453 -10.979 -11.6294
RightLeg  5.82325 -3.51763 2.57695
RightFoot  1.16609 -0.510955 4.73187
RightToes  0.00048216 0.542163 -0.142577
Spine  -1.04155 0.554824 6.62262
Spine1  23.5158 3.60389 -7.59804
HEad  -10.6584 6.39794 -18.3619
LeftShoulder1  9.60356 -14.9756 -45.299
LeftArm  -55.2336 23.4791 -11.9238
LeftForeArm  87.4232 -69.1791 -144.896
LeftHand  -0.25398 0.0180481 5.50724
RightShoulder  6.29829 10.4608 39.0141
RightArm  -44.5682 -13.3403 30.985
RightForeArm  63.361 67.7057 146.61
RightHand  -1.29207 4.95789 -14.7914
LeftUpLeg  1.44743 5.64442 2.6136
LeftLeg  6.50818 7.09525 -2.56592
LeftFoot  -4.01651 0.0842312 -0.935679
LeftToes  1.06246e-005 4.65855e-005 -8.18503e-006
